<?xml version="1.0" encoding="UTF-8" standalone="no"?>
<!DOCTYPE svg PUBLIC "-//W3C//DTD SVG 1.1//EN"
 "http://www.w3.org/Graphics/SVG/1.1/DTD/svg11.dtd">
<!-- Generated by graphviz version 10.0.1 (20240210.2158)
 -->
<!-- Title: structs Pages: 1 -->
<svg width="442pt" height="600pt"
 viewBox="0.00 0.00 442.00 600.00" xmlns="http://www.w3.org/2000/svg" xmlns:xlink="http://www.w3.org/1999/xlink">
<g id="graph0" class="graph" transform="scale(1 1) rotate(0) translate(4 596)">
<title>structs</title>
<polygon fill="white" stroke="none" points="-4,4 -4,-596 438,-596 438,4 -4,4"/>
<!-- article_tag -->
<g id="node1" class="node">
<title>article_tag</title>
<polygon fill="none" stroke="black" points="32.5,-150 32.5,-172 109.5,-172 109.5,-150 32.5,-150"/>
<text text-anchor="start" x="40.25" y="-156.7" font-family="Times,serif" font-weight="bold" font-size="14.00">article_tag</text>
<polygon fill="none" stroke="black" points="32.5,-126 32.5,-150 52.5,-150 52.5,-126 32.5,-126"/>
<text text-anchor="start" x="35.38" y="-133.7" font-family="Times,serif" font-size="14.00">🔑</text>
<polygon fill="none" stroke="black" points="52.5,-126 52.5,-150 109.5,-150 109.5,-126 52.5,-126"/>
<text text-anchor="start" x="55.5" y="-132.95" font-family="Times,serif" font-size="14.00">article_id</text>
<polygon fill="none" stroke="black" points="32.5,-102 32.5,-126 52.5,-126 52.5,-102 32.5,-102"/>
<text text-anchor="start" x="35.38" y="-109.7" font-family="Times,serif" font-size="14.00">🔑</text>
<polygon fill="none" stroke="black" points="52.5,-102 52.5,-126 109.5,-126 109.5,-102 52.5,-102"/>
<text text-anchor="start" x="64.12" y="-108.95" font-family="Times,serif" font-size="14.00">tag_id</text>
</g>
<!-- articles -->
<g id="node2" class="node">
<title>articles</title>
<polygon fill="none" stroke="black" points="186,-298 186,-320 296,-320 296,-298 186,-298"/>
<text text-anchor="start" x="220" y="-304.7" font-family="Times,serif" font-weight="bold" font-size="14.00">articles</text>
<polygon fill="none" stroke="black" points="186,-274 186,-298 206,-298 206,-274 186,-274"/>
<text text-anchor="start" x="188.88" y="-281.7" font-family="Times,serif" font-size="14.00">🔑</text>
<polygon fill="none" stroke="black" points="206,-274 206,-298 296,-298 296,-274 206,-274"/>
<text text-anchor="start" x="245.75" y="-280.95" font-family="Times,serif" font-size="14.00">id</text>
<polygon fill="none" stroke="black" points="186,-252 186,-274 206,-274 206,-252 186,-252"/>
<text text-anchor="start" x="194.12" y="-257.7" font-family="Times,serif" font-size="14.00"> </text>
<polygon fill="none" stroke="black" points="206,-252 206,-274 296,-274 296,-252 206,-252"/>
<text text-anchor="start" x="239.75" y="-257.7" font-family="Times,serif" font-size="14.00">slug</text>
<polygon fill="none" stroke="black" points="186,-230 186,-252 206,-252 206,-230 186,-230"/>
<text text-anchor="start" x="194.12" y="-235.7" font-family="Times,serif" font-size="14.00"> </text>
<polygon fill="none" stroke="black" points="206,-230 206,-252 296,-252 296,-230 206,-230"/>
<text text-anchor="start" x="240.5" y="-235.7" font-family="Times,serif" font-size="14.00">title</text>
<polygon fill="none" stroke="black" points="186,-208 186,-230 206,-230 206,-208 186,-208"/>
<text text-anchor="start" x="194.12" y="-213.7" font-family="Times,serif" font-size="14.00"> </text>
<polygon fill="none" stroke="black" points="206,-208 206,-230 296,-230 296,-208 206,-208"/>
<text text-anchor="start" x="221" y="-213.7" font-family="Times,serif" font-size="14.00">description</text>
<polygon fill="none" stroke="black" points="186,-186 186,-208 206,-208 206,-186 186,-186"/>
<text text-anchor="start" x="194.12" y="-191.7" font-family="Times,serif" font-size="14.00"> </text>
<polygon fill="none" stroke="black" points="206,-186 206,-208 296,-208 296,-186 206,-186"/>
<text text-anchor="start" x="237.5" y="-191.7" font-family="Times,serif" font-size="14.00">body</text>
<polygon fill="none" stroke="black" points="186,-164 186,-186 206,-186 206,-164 186,-164"/>
<text text-anchor="start" x="194.12" y="-169.7" font-family="Times,serif" font-size="14.00"> </text>
<polygon fill="none" stroke="black" points="206,-164 206,-186 296,-186 296,-164 206,-164"/>
<text text-anchor="start" x="223.25" y="-169.7" font-family="Times,serif" font-size="14.00">created_at</text>
<polygon fill="none" stroke="black" points="186,-142 186,-164 206,-164 206,-142 186,-142"/>
<text text-anchor="start" x="194.12" y="-147.7" font-family="Times,serif" font-size="14.00"> </text>
<polygon fill="none" stroke="black" points="206,-142 206,-164 296,-164 296,-142 206,-142"/>
<text text-anchor="start" x="221.38" y="-147.7" font-family="Times,serif" font-size="14.00">updated_at</text>
<polygon fill="none" stroke="black" points="186,-120 186,-142 206,-142 206,-120 186,-120"/>
<text text-anchor="start" x="194.12" y="-125.7" font-family="Times,serif" font-size="14.00"> </text>
<polygon fill="none" stroke="black" points="206,-120 206,-142 296,-142 296,-120 206,-120"/>
<text text-anchor="start" x="209" y="-125.7" font-family="Times,serif" font-size="14.00">favorites_count</text>
<polygon fill="none" stroke="black" points="186,-98 186,-120 206,-120 206,-98 186,-98"/>
<text text-anchor="start" x="194.12" y="-103.7" font-family="Times,serif" font-size="14.00"> </text>
<polygon fill="none" stroke="black" points="206,-98 206,-120 296,-120 296,-98 206,-98"/>
<text text-anchor="start" x="225.12" y="-103.7" font-family="Times,serif" font-size="14.00">author_id</text>
</g>
<!-- article_tag&#45;&gt;articles -->
<g id="edge9" class="edge">
<title>article_tag:e&#45;&gt;articles:w</title>
<path fill="none" stroke="black" d="M111,-138C180.38,-138 119.27,-269.71 173.86,-284.63"/>
<polygon fill="black" stroke="black" points="173.15,-288.07 183.5,-285.82 174,-281.12 173.15,-288.07"/>
</g>
<!-- tags -->
<g id="node4" class="node">
<title>tags</title>
<polygon fill="none" stroke="black" points="213,-50 213,-72 269,-72 269,-50 213,-50"/>
<text text-anchor="start" x="229.38" y="-56.7" font-family="Times,serif" font-weight="bold" font-size="14.00">tags</text>
<polygon fill="none" stroke="black" points="213,-26 213,-50 233,-50 233,-26 213,-26"/>
<text text-anchor="start" x="215.88" y="-33.7" font-family="Times,serif" font-size="14.00">🔑</text>
<polygon fill="none" stroke="black" points="233,-26 233,-50 269,-50 269,-26 233,-26"/>
<text text-anchor="start" x="245.75" y="-32.95" font-family="Times,serif" font-size="14.00">id</text>
<polygon fill="none" stroke="black" points="213,-4 213,-26 233,-26 233,-4 213,-4"/>
<text text-anchor="start" x="221.12" y="-9.7" font-family="Times,serif" font-size="14.00"> </text>
<polygon fill="none" stroke="black" points="233,-4 233,-26 269,-26 269,-4 233,-4"/>
<text text-anchor="start" x="236" y="-9.7" font-family="Times,serif" font-size="14.00">name</text>
</g>
<!-- article_tag&#45;&gt;tags -->
<g id="edge8" class="edge">
<title>article_tag:e&#45;&gt;tags:w</title>
<path fill="none" stroke="black" d="M111,-114C163.01,-114 157.14,-48.86 200.55,-39.19"/>
<polygon fill="black" stroke="black" points="200.91,-42.68 210.49,-38.16 200.19,-35.71 200.91,-42.68"/>
</g>
<!-- users -->
<g id="node7" class="node">
<title>users</title>
<polygon fill="none" stroke="black" points="348,-394 348,-416 426,-416 426,-394 348,-394"/>
<text text-anchor="start" x="372" y="-400.7" font-family="Times,serif" font-weight="bold" font-size="14.00">users</text>
<polygon fill="none" stroke="black" points="348,-370 348,-394 368,-394 368,-370 348,-370"/>
<text text-anchor="start" x="350.88" y="-377.7" font-family="Times,serif" font-size="14.00">🔑</text>
<polygon fill="none" stroke="black" points="368,-370 368,-394 426,-394 426,-370 368,-370"/>
<text text-anchor="start" x="391.75" y="-376.95" font-family="Times,serif" font-size="14.00">id</text>
<polygon fill="none" stroke="black" points="348,-348 348,-370 368,-370 368,-348 348,-348"/>
<text text-anchor="start" x="356.12" y="-353.7" font-family="Times,serif" font-size="14.00"> </text>
<polygon fill="none" stroke="black" points="368,-348 368,-370 426,-370 426,-348 368,-348"/>
<text text-anchor="start" x="370.75" y="-353.7" font-family="Times,serif" font-size="14.00">username</text>
<polygon fill="none" stroke="black" points="348,-326 348,-348 368,-348 368,-326 348,-326"/>
<text text-anchor="start" x="356.12" y="-331.7" font-family="Times,serif" font-size="14.00"> </text>
<polygon fill="none" stroke="black" points="368,-326 368,-348 426,-348 426,-326 368,-326"/>
<text text-anchor="start" x="381.62" y="-331.7" font-family="Times,serif" font-size="14.00">email</text>
<polygon fill="none" stroke="black" points="348,-304 348,-326 368,-326 368,-304 348,-304"/>
<text text-anchor="start" x="356.12" y="-309.7" font-family="Times,serif" font-size="14.00"> </text>
<polygon fill="none" stroke="black" points="368,-304 368,-326 426,-326 426,-304 368,-304"/>
<text text-anchor="start" x="371.5" y="-309.7" font-family="Times,serif" font-size="14.00">password</text>
<polygon fill="none" stroke="black" points="348,-282 348,-304 368,-304 368,-282 348,-282"/>
<text text-anchor="start" x="356.12" y="-287.7" font-family="Times,serif" font-size="14.00"> </text>
<polygon fill="none" stroke="black" points="368,-282 368,-304 426,-304 426,-282 368,-282"/>
<text text-anchor="start" x="388.38" y="-287.7" font-family="Times,serif" font-size="14.00">bio</text>
<polygon fill="none" stroke="black" points="348,-260 348,-282 368,-282 368,-260 348,-260"/>
<text text-anchor="start" x="356.12" y="-265.7" font-family="Times,serif" font-size="14.00"> </text>
<polygon fill="none" stroke="black" points="368,-260 368,-282 426,-282 426,-260 368,-260"/>
<text text-anchor="start" x="380.12" y="-265.7" font-family="Times,serif" font-size="14.00">image</text>
</g>
<!-- articles&#45;&gt;users -->
<g id="edge7" class="edge">
<title>articles:e&#45;&gt;users:w</title>
<path fill="none" stroke="black" d="M297,-109C416.26,-109 236.36,-364.17 335.75,-381.12"/>
<polygon fill="black" stroke="black" points="335.25,-384.59 345.49,-381.88 335.8,-377.61 335.25,-384.59"/>
</g>
<!-- comments -->
<g id="node3" class="node">
<title>comments</title>
<polygon fill="none" stroke="black" points="28.5,-566 28.5,-588 113.5,-588 113.5,-566 28.5,-566"/>
<text text-anchor="start" x="41" y="-572.7" font-family="Times,serif" font-weight="bold" font-size="14.00">comments</text>
<polygon fill="none" stroke="black" points="28.5,-542 28.5,-566 48.5,-566 48.5,-542 28.5,-542"/>
<text text-anchor="start" x="31.38" y="-549.7" font-family="Times,serif" font-size="14.00">🔑</text>
<polygon fill="none" stroke="black" points="48.5,-542 48.5,-566 113.5,-566 113.5,-542 48.5,-542"/>
<text text-anchor="start" x="75.75" y="-548.95" font-family="Times,serif" font-size="14.00">id</text>
<polygon fill="none" stroke="black" points="28.5,-520 28.5,-542 48.5,-542 48.5,-520 28.5,-520"/>
<text text-anchor="start" x="36.62" y="-525.7" font-family="Times,serif" font-size="14.00"> </text>
<polygon fill="none" stroke="black" points="48.5,-520 48.5,-542 113.5,-542 113.5,-520 48.5,-520"/>
<text text-anchor="start" x="53.25" y="-525.7" font-family="Times,serif" font-size="14.00">created_at</text>
<polygon fill="none" stroke="black" points="28.5,-498 28.5,-520 48.5,-520 48.5,-498 28.5,-498"/>
<text text-anchor="start" x="36.62" y="-503.7" font-family="Times,serif" font-size="14.00"> </text>
<polygon fill="none" stroke="black" points="48.5,-498 48.5,-520 113.5,-520 113.5,-498 48.5,-498"/>
<text text-anchor="start" x="51.38" y="-503.7" font-family="Times,serif" font-size="14.00">updated_at</text>
<polygon fill="none" stroke="black" points="28.5,-476 28.5,-498 48.5,-498 48.5,-476 28.5,-476"/>
<text text-anchor="start" x="36.62" y="-481.7" font-family="Times,serif" font-size="14.00"> </text>
<polygon fill="none" stroke="black" points="48.5,-476 48.5,-498 113.5,-498 113.5,-476 48.5,-476"/>
<text text-anchor="start" x="67.5" y="-481.7" font-family="Times,serif" font-size="14.00">body</text>
<polygon fill="none" stroke="black" points="28.5,-454 28.5,-476 48.5,-476 48.5,-454 28.5,-454"/>
<text text-anchor="start" x="36.62" y="-459.7" font-family="Times,serif" font-size="14.00"> </text>
<polygon fill="none" stroke="black" points="48.5,-454 48.5,-476 113.5,-476 113.5,-454 48.5,-454"/>
<text text-anchor="start" x="55.12" y="-459.7" font-family="Times,serif" font-size="14.00">author_id</text>
<polygon fill="none" stroke="black" points="28.5,-432 28.5,-454 48.5,-454 48.5,-432 28.5,-432"/>
<text text-anchor="start" x="36.62" y="-437.7" font-family="Times,serif" font-size="14.00"> </text>
<polygon fill="none" stroke="black" points="48.5,-432 48.5,-454 113.5,-454 113.5,-432 48.5,-432"/>
<text text-anchor="start" x="55.5" y="-437.7" font-family="Times,serif" font-size="14.00">article_id</text>
</g>
<!-- comments&#45;&gt;articles -->
<g id="edge1" class="edge">
<title>comments:e&#45;&gt;articles:w</title>
<path fill="none" stroke="black" d="M115,-443C187.22,-443 117.18,-302.7 173.84,-287.36"/>
<polygon fill="black" stroke="black" points="173.99,-290.86 183.5,-286.18 173.15,-283.92 173.99,-290.86"/>
</g>
<!-- comments&#45;&gt;users -->
<g id="edge2" class="edge">
<title>comments:e&#45;&gt;users:w</title>
<path fill="none" stroke="black" d="M115,-465C199.2,-465 231.97,-495.6 304,-452 331.33,-435.46 315.8,-394.27 335.95,-384.23"/>
<polygon fill="black" stroke="black" points="336.41,-387.71 345.52,-382.3 335.02,-380.85 336.41,-387.71"/>
</g>
<!-- user_article_favorite -->
<g id="node5" class="node">
<title>user_article_favorite</title>
<polygon fill="none" stroke="black" points="8,-363 8,-385 134,-385 134,-363 8,-363"/>
<text text-anchor="start" x="11" y="-369.7" font-family="Times,serif" font-weight="bold" font-size="14.00">user_article_favorite</text>
<polygon fill="none" stroke="black" points="8,-339 8,-363 52,-363 52,-339 8,-339"/>
<text text-anchor="start" x="22.88" y="-346.7" font-family="Times,serif" font-size="14.00">🔑</text>
<polygon fill="none" stroke="black" points="52,-339 52,-363 134,-363 134,-339 52,-339"/>
<text text-anchor="start" x="73.12" y="-345.95" font-family="Times,serif" font-size="14.00">user_id</text>
<polygon fill="none" stroke="black" points="8,-315 8,-339 52,-339 52,-315 8,-315"/>
<text text-anchor="start" x="22.88" y="-322.7" font-family="Times,serif" font-size="14.00">🔑</text>
<polygon fill="none" stroke="black" points="52,-315 52,-339 134,-339 134,-315 52,-315"/>
<text text-anchor="start" x="67.5" y="-321.95" font-family="Times,serif" font-size="14.00">article_id</text>
</g>
<!-- user_article_favorite&#45;&gt;articles -->
<g id="edge5" class="edge">
<title>user_article_favorite:e&#45;&gt;articles:w</title>
<path fill="none" stroke="black" d="M135,-327C159.25,-327 157.71,-297.81 173.91,-288.69"/>
<polygon fill="black" stroke="black" points="174.64,-292.11 183.53,-286.36 172.99,-285.31 174.64,-292.11"/>
</g>
<!-- user_article_favorite&#45;&gt;users -->
<g id="edge6" class="edge">
<title>user_article_favorite:e&#45;&gt;users:w</title>
<path fill="none" stroke="black" d="M135,-351C174.59,-351 143.92,-408.87 178,-429 226.22,-457.48 252.75,-451.57 304,-429 325.66,-419.46 321.37,-393.03 335.92,-384.61"/>
<polygon fill="black" stroke="black" points="336.6,-388.05 345.53,-382.35 334.99,-381.23 336.6,-388.05"/>
</g>
<!-- user_follow -->
<g id="node6" class="node">
<title>user_follow</title>
<polygon fill="none" stroke="black" points="202,-394 202,-416 280,-416 280,-394 202,-394"/>
<text text-anchor="start" x="207.62" y="-400.7" font-family="Times,serif" font-weight="bold" font-size="14.00">user_follow</text>
<polygon fill="none" stroke="black" points="202,-370 202,-394 222,-394 222,-370 202,-370"/>
<text text-anchor="start" x="204.88" y="-377.7" font-family="Times,serif" font-size="14.00">🔑</text>
<polygon fill="none" stroke="black" points="222,-370 222,-394 280,-394 280,-370 222,-370"/>
<text text-anchor="start" x="231.12" y="-376.95" font-family="Times,serif" font-size="14.00">user_id</text>
<polygon fill="none" stroke="black" points="202,-346 202,-370 222,-370 222,-346 202,-346"/>
<text text-anchor="start" x="204.88" y="-353.7" font-family="Times,serif" font-size="14.00">🔑</text>
<polygon fill="none" stroke="black" points="222,-346 222,-370 280,-370 280,-346 222,-346"/>
<text text-anchor="start" x="224.75" y="-352.95" font-family="Times,serif" font-size="14.00">follow_id</text>
</g>
<!-- user_follow&#45;&gt;users -->
<g id="edge3" class="edge">
<title>user_follow:e&#45;&gt;users:w</title>
<path fill="none" stroke="black" d="M281,-358C307.95,-358 314.29,-375.89 335.61,-380.78"/>
<polygon fill="black" stroke="black" points="335.18,-384.25 345.5,-381.84 335.93,-377.29 335.18,-384.25"/>
</g>
<!-- user_follow&#45;&gt;users -->
<g id="edge4" class="edge">
<title>user_follow:e&#45;&gt;users:w</title>
<path fill="none" stroke="black" d="M281,-382C306.09,-382 315.09,-382 335.53,-382"/>
<polygon fill="black" stroke="black" points="335.49,-385.5 345.49,-382 335.49,-378.5 335.49,-385.5"/>
</g>
</g>
</svg>
